<svg xmlns="http://www.w3.org/2000/svg" viewBox="0 0 64 64">
  <circle cx="32" cy="32" r="32" fill="#fcf9e6"/>
  <path d="M22 30 C15 20 16 6 24 4 C29 8 28 20 26 30 Z" fill="#FBF6EC" stroke="#4a4238" stroke-width="2"/>
  <path d="M42 30 C49 20 48 6 40 4 C35 8 36 20 38 30 Z" fill="#FBF6EC" stroke="#4a4238" stroke-width="2"/>
  <ellipse cx="32" cy="36" rx="16" ry="15" fill="#FBF6EC" stroke="#4a4238" stroke-width="2.5"/>
  <path d="M18 26 C18 16 46 16 46 26 C46 31 39 31 32 31 C25 31 18 31 18 26 Z" fill="#f6c945" stroke="#4a4238" stroke-width="2"/>
  <path d="M28 12 L32 4 L36 12 Z" fill="#ef8b74" stroke="#4a4238" stroke-width="1.5"/>
  <circle cx="26" cy="35" r="2.2" fill="#4a4238"/>
  <circle cx="38" cy="35" r="2.2" fill="#4a4238"/>
  <path d="M27 44 C30 47 34 47 37 44" stroke="#4a4238" stroke-width="2.4" fill="none" stroke-linecap="round"/>
</svg>
